<svg width="255" height="97" viewBox="0 0 255 97" fill="none" xmlns="http://www.w3.org/2000/svg">
<path d="M7.39638 51.72L7.97238 34.728H1.54038C1.02838 34.728 0.772375 34.536 0.772375 34.152C0.772375 33 1.31638 31.688 2.40438 30.216C3.49238 28.68 4.67638 27.912 5.95638 27.912H7.97238C7.84438 22.92 7.71638 19.336 7.58838 17.16C7.33238 13.256 6.69238 10.248 5.66838 8.136L5.18838 7.17599C4.93238 6.856 4.80438 6.472 4.80438 6.024C4.80438 5.576 5.15638 5.192 5.86038 4.872C6.56438 4.552 7.58838 4.168 8.93238 3.72C10.3404 3.272 13.2844 2.696 17.7644 1.992C22.2444 1.224 27.1084 0.839996 32.3564 0.839996C37.6684 0.839996 40.5484 1.224 40.9964 1.992C41.5084 2.76 41.7644 3.976 41.7644 5.64C41.7644 7.24 41.5404 8.04 41.0924 8.04C41.0284 8.04 40.8044 8.008 40.4204 7.944C39.3964 7.688 37.8284 7.56 35.7164 7.56C33.6044 7.56 31.3324 7.752 28.9004 8.136C26.4684 8.52 24.6124 8.904 23.3324 9.288L21.5084 9.96C20.9964 10.088 20.6124 10.536 20.3564 11.304C19.8444 15.08 19.5884 20.616 19.5884 27.912H35.1404C35.7164 27.912 36.0044 28.104 36.0044 28.488C36.0044 29.64 35.4924 30.984 34.4684 32.52C33.4444 34.056 32.2924 34.824 31.0124 34.824L19.5884 34.728L20.2604 63.528C20.2604 64.936 20.0364 65.96 19.5884 66.6C18.3724 68.2 16.2924 69.384 13.3484 70.152C10.4684 70.984 8.06838 71.4 6.14838 71.4C5.63638 71.4 5.38038 71.08 5.38038 70.44C5.38038 70.12 5.41238 69.864 5.47638 69.672C6.24438 68.584 6.88438 62.6 7.39638 51.72ZM55.4181 14.088L54.8421 49.32C54.8421 60.328 55.1941 66.92 55.8981 69.096C56.0901 69.48 56.1861 69.864 56.1861 70.248C56.1861 71.016 55.2581 71.4 53.4021 71.4C51.5461 71.4 49.4661 70.92 47.1621 69.96C44.9221 69.064 43.8021 67.88 43.8021 66.408C45.0821 57.448 45.7221 45.48 45.7221 30.504L45.3381 15.816C45.2101 14.024 44.8261 12.488 44.1861 11.208C43.6101 9.928 43.0341 9.096 42.4581 8.712L41.6901 8.232C41.2421 7.976 41.0181 7.688 41.0181 7.368C41.0181 6.472 42.3941 5.384 45.1461 4.10399C47.9621 2.76 50.6821 2.088 53.3061 2.088C54.3301 2.088 54.9061 2.44 55.0341 3.144C55.2901 4.808 55.4181 8.456 55.4181 14.088ZM95.9421 26.28C94.7901 33.192 94.2141 41.992 94.2141 52.68C94.2141 60.552 94.5341 65.736 95.1741 68.232L95.5581 69.48C95.5581 70.312 94.8541 70.728 93.4461 70.728C88.5181 70.728 85.7021 69.352 84.9981 66.6C84.9341 66.28 84.7741 66.12 84.5181 66.12C84.3261 66.12 84.1341 66.248 83.9421 66.504C81.9581 69.128 78.8861 70.44 74.7261 70.44C72.4221 70.44 70.0221 69.864 67.5261 68.712C65.9901 68.008 64.7421 66.792 63.7821 65.064C62.8221 63.272 62.3421 61.096 62.3421 58.536L63.7821 37.512C63.7821 33.096 63.3341 29.96 62.4381 28.104C62.1181 27.4 61.9581 26.952 61.9581 26.76C61.9581 26.376 62.1181 26.12 62.4381 25.992C63.4621 25.672 64.7741 25.512 66.3741 25.512C72.5821 25.512 75.6861 28.072 75.6861 33.192C75.6861 34.792 75.0141 38.44 73.6701 44.136C72.3901 49.832 71.7501 53.896 71.7501 56.328C71.7501 58.696 72.2621 60.52 73.2861 61.8C74.3741 63.08 75.8461 63.72 77.7021 63.72C79.6221 63.72 81.1261 63.048 82.2141 61.704C83.3021 60.36 83.9421 59.016 84.1341 57.672L84.4221 55.656C84.6781 53.416 84.8061 49.48 84.8061 43.848C84.8061 38.216 84.6141 34.664 84.2301 33.192C83.9101 31.656 83.7501 30.696 83.7501 30.312C83.7501 28.712 85.0301 27.464 87.5901 26.568C90.1501 25.608 92.4541 25.128 94.5021 25.128C95.4621 25.128 95.9421 25.512 95.9421 26.28ZM122.279 69.576C123.175 65.096 123.623 58.824 123.623 50.76C123.623 42.632 123.591 37.832 123.527 36.36C123.463 34.888 123.015 33.704 122.183 32.808C121.351 31.912 120.615 31.4 119.975 31.272C119.399 31.144 118.567 31.08 117.479 31.08C116.391 31.08 115.335 31.592 114.311 32.616C113.287 33.576 112.679 34.568 112.487 35.592L112.103 37.128C111.911 39.048 111.815 43.304 111.815 49.896C111.815 56.488 111.943 60.648 112.199 62.376C112.519 64.04 112.679 65.16 112.679 65.736C112.679 66.312 112.423 66.888 111.911 67.464C109.735 69.768 106.663 70.92 102.695 70.92C101.287 70.92 100.583 70.504 100.583 69.672C101.863 61.992 102.503 52.2 102.503 40.296C102.503 35.88 102.407 32.904 102.215 31.368L101.831 28.296C101.767 27.592 101.639 26.824 101.447 25.992C101.447 25.224 102.439 24.84 104.423 24.84C107.367 24.84 109.319 25.928 110.279 28.104C110.343 28.36 110.471 28.488 110.663 28.488C110.855 28.488 111.303 28.232 112.007 27.72C114.119 26.056 116.967 25.224 120.551 25.224C122.599 25.224 124.615 25.608 126.599 26.376C128.583 27.144 129.959 28.168 130.727 29.448C130.791 29.576 130.887 29.64 131.015 29.64C131.143 29.64 131.335 29.512 131.591 29.256C134.279 26.568 137.767 25.224 142.055 25.224C147.751 25.224 151.655 27.272 153.767 31.368C154.535 32.968 154.919 34.984 154.919 37.416C154.919 39.848 154.727 43.304 154.343 47.784C153.959 52.264 153.767 55.688 153.767 58.056C153.767 60.424 153.991 62.568 154.439 64.488C154.951 66.408 155.431 67.784 155.879 68.616C156.391 69.448 156.647 69.928 156.647 70.056C156.647 70.888 155.751 71.304 153.959 71.304C149.543 71.304 146.471 70.408 144.743 68.616C143.015 66.824 142.151 64.488 142.151 61.608C142.151 58.664 142.727 54.728 143.879 49.8C145.095 44.808 145.703 41.064 145.703 38.568C145.703 33.512 143.655 30.984 139.559 30.984C137.831 30.984 136.455 31.496 135.431 32.52C134.407 33.544 133.799 34.568 133.607 35.592L133.415 37.128C133.159 40.072 133.031 43.624 133.031 47.784C133.031 51.944 133.095 55.208 133.223 57.576C133.351 59.88 133.479 61.704 133.607 63.048C133.735 64.328 133.799 65.096 133.799 65.352C133.799 67.144 132.679 68.52 130.439 69.48C128.199 70.44 126.023 70.92 123.911 70.92C122.823 70.92 122.279 70.472 122.279 69.576ZM181.529 69.576C182.425 65.096 182.873 58.824 182.873 50.76C182.873 42.632 182.841 37.832 182.777 36.36C182.713 34.888 182.265 33.704 181.433 32.808C180.601 31.912 179.865 31.4 179.225 31.272C178.649 31.144 177.817 31.08 176.729 31.08C175.641 31.08 174.585 31.592 173.561 32.616C172.537 33.576 171.929 34.568 171.737 35.592L171.353 37.128C171.161 39.048 171.065 43.304 171.065 49.896C171.065 56.488 171.193 60.648 171.449 62.376C171.769 64.04 171.929 65.16 171.929 65.736C171.929 66.312 171.673 66.888 171.161 67.464C168.985 69.768 165.913 70.92 161.945 70.92C160.537 70.92 159.833 70.504 159.833 69.672C161.113 61.992 161.753 52.2 161.753 40.296C161.753 35.88 161.657 32.904 161.465 31.368L161.081 28.296C161.017 27.592 160.889 26.824 160.697 25.992C160.697 25.224 161.689 24.84 163.673 24.84C166.617 24.84 168.569 25.928 169.529 28.104C169.593 28.36 169.721 28.488 169.913 28.488C170.105 28.488 170.553 28.232 171.257 27.72C173.369 26.056 176.217 25.224 179.801 25.224C181.849 25.224 183.865 25.608 185.849 26.376C187.833 27.144 189.209 28.168 189.977 29.448C190.041 29.576 190.137 29.64 190.265 29.64C190.393 29.64 190.585 29.512 190.841 29.256C193.529 26.568 197.017 25.224 201.305 25.224C207.001 25.224 210.905 27.272 213.017 31.368C213.785 32.968 214.169 34.984 214.169 37.416C214.169 39.848 213.977 43.304 213.593 47.784C213.209 52.264 213.017 55.688 213.017 58.056C213.017 60.424 213.241 62.568 213.689 64.488C214.201 66.408 214.681 67.784 215.129 68.616C215.641 69.448 215.897 69.928 215.897 70.056C215.897 70.888 215.001 71.304 213.209 71.304C208.793 71.304 205.721 70.408 203.993 68.616C202.265 66.824 201.401 64.488 201.401 61.608C201.401 58.664 201.977 54.728 203.129 49.8C204.345 44.808 204.953 41.064 204.953 38.568C204.953 33.512 202.905 30.984 198.809 30.984C197.081 30.984 195.705 31.496 194.681 32.52C193.657 33.544 193.049 34.568 192.857 35.592L192.665 37.128C192.409 40.072 192.281 43.624 192.281 47.784C192.281 51.944 192.345 55.208 192.473 57.576C192.601 59.88 192.729 61.704 192.857 63.048C192.985 64.328 193.049 65.096 193.049 65.352C193.049 67.144 191.929 68.52 189.689 69.48C187.449 70.44 185.273 70.92 183.161 70.92C182.073 70.92 181.529 70.472 181.529 69.576ZM236.075 95.592C236.075 96.36 235.691 96.744 234.923 96.744H234.827C232.715 96.744 230.315 96.008 227.627 94.536C225.003 93.064 223.691 91.368 223.691 89.448C223.691 87.528 224.907 84.168 227.339 79.368C229.771 74.632 230.987 71.464 230.987 69.864C230.987 68.136 230.155 65.032 228.491 60.552C226.379 54.728 224.683 49.992 223.403 46.344C222.187 42.696 220.843 39.496 219.371 36.744C217.963 33.928 216.939 32.264 216.299 31.752L215.339 31.08C214.635 30.696 214.283 30.28 214.283 29.832C214.283 28.936 215.659 28.04 218.411 27.144C221.227 26.184 223.691 25.704 225.803 25.704C226.763 25.704 227.563 26.472 228.203 28.008C229.355 31.016 230.603 35.176 231.947 40.488C235.211 51.368 237.259 56.808 238.091 56.808C238.667 56.808 239.819 54.568 241.547 50.088C243.339 45.608 244.235 41.992 244.235 39.24C244.235 34.44 242.827 31.624 240.011 30.792C239.371 30.664 239.051 30.344 239.051 29.832C239.051 28.68 240.555 27.592 243.563 26.568C246.571 25.48 249.291 24.936 251.723 24.936C253.835 24.936 254.891 26.312 254.891 29.064C254.891 31.176 254.443 33.64 253.547 36.456C252.651 39.272 251.819 41.512 251.051 43.176C250.283 44.776 248.363 48.552 245.291 54.504C242.283 60.392 239.787 65.576 237.803 70.056C235.627 75.432 234.539 80.904 234.539 86.472C234.539 89.416 234.795 91.624 235.307 93.096C235.819 94.568 236.075 95.4 236.075 95.592Z" fill="black"/>
</svg>
