<svg width="361" height="130" viewBox="0 0 361 130" fill="none" xmlns="http://www.w3.org/2000/svg">
<path d="M60.8964 75.72L61.4724 58.728H55.0404C54.5284 58.728 54.2724 58.536 54.2724 58.152C54.2724 57 54.8164 55.688 55.9044 54.216C56.9924 52.68 58.1764 51.912 59.4564 51.912H61.4724C61.3444 46.92 61.2164 43.336 61.0884 41.16C60.8324 37.256 60.1924 34.248 59.1684 32.136L58.6884 31.176C58.4324 30.856 58.3044 30.472 58.3044 30.024C58.3044 29.576 58.6564 29.192 59.3604 28.872C60.0644 28.552 61.0884 28.168 62.4324 27.72C63.8404 27.272 66.7844 26.696 71.2644 25.992C75.7444 25.224 80.6084 24.84 85.8564 24.84C91.1684 24.84 94.0484 25.224 94.4964 25.992C95.0084 26.76 95.2644 27.976 95.2644 29.64C95.2644 31.24 95.0404 32.04 94.5924 32.04C94.5284 32.04 94.3044 32.008 93.9204 31.944C92.8964 31.688 91.3284 31.56 89.2164 31.56C87.1044 31.56 84.8324 31.752 82.4004 32.136C79.9684 32.52 78.1124 32.904 76.8324 33.288L75.0084 33.96C74.4964 34.088 74.1124 34.536 73.8564 35.304C73.3444 39.08 73.0884 44.616 73.0884 51.912H88.6404C89.2164 51.912 89.5044 52.104 89.5044 52.488C89.5044 53.64 88.9924 54.984 87.9684 56.52C86.9444 58.056 85.7924 58.824 84.5124 58.824L73.0884 58.728L73.7604 87.528C73.7604 88.936 73.5364 89.96 73.0884 90.6C71.8724 92.2 69.7924 93.384 66.8484 94.152C63.9684 94.984 61.5684 95.4 59.6484 95.4C59.1364 95.4 58.8804 95.08 58.8804 94.44C58.8804 94.12 58.9124 93.864 58.9764 93.672C59.7444 92.584 60.3844 86.6 60.8964 75.72ZM108.918 38.088L108.342 73.32C108.342 84.328 108.694 90.92 109.398 93.096C109.59 93.48 109.686 93.864 109.686 94.248C109.686 95.016 108.758 95.4 106.902 95.4C105.046 95.4 102.966 94.92 100.662 93.96C98.4221 93.064 97.3021 91.88 97.3021 90.408C98.5821 81.448 99.2221 69.48 99.2221 54.504L98.8381 39.816C98.7101 38.024 98.3261 36.488 97.6861 35.208C97.1101 33.928 96.5341 33.096 95.9581 32.712L95.1901 32.232C94.7421 31.976 94.5181 31.688 94.5181 31.368C94.5181 30.472 95.8941 29.384 98.6461 28.104C101.462 26.76 104.182 26.088 106.806 26.088C107.83 26.088 108.406 26.44 108.534 27.144C108.79 28.808 108.918 32.456 108.918 38.088ZM149.442 50.28C148.29 57.192 147.714 65.992 147.714 76.68C147.714 84.552 148.034 89.736 148.674 92.232L149.058 93.48C149.058 94.312 148.354 94.728 146.946 94.728C142.018 94.728 139.202 93.352 138.498 90.6C138.434 90.28 138.274 90.12 138.018 90.12C137.826 90.12 137.634 90.248 137.442 90.504C135.458 93.128 132.386 94.44 128.226 94.44C125.922 94.44 123.522 93.864 121.026 92.712C119.49 92.008 118.242 90.792 117.282 89.064C116.322 87.272 115.842 85.096 115.842 82.536L117.282 61.512C117.282 57.096 116.834 53.96 115.938 52.104C115.618 51.4 115.458 50.952 115.458 50.76C115.458 50.376 115.618 50.12 115.938 49.992C116.962 49.672 118.274 49.512 119.874 49.512C126.082 49.512 129.186 52.072 129.186 57.192C129.186 58.792 128.514 62.44 127.17 68.136C125.89 73.832 125.25 77.896 125.25 80.328C125.25 82.696 125.762 84.52 126.786 85.8C127.874 87.08 129.346 87.72 131.202 87.72C133.122 87.72 134.626 87.048 135.714 85.704C136.802 84.36 137.442 83.016 137.634 81.672L137.922 79.656C138.178 77.416 138.306 73.48 138.306 67.848C138.306 62.216 138.114 58.664 137.73 57.192C137.41 55.656 137.25 54.696 137.25 54.312C137.25 52.712 138.53 51.464 141.09 50.568C143.65 49.608 145.954 49.128 148.002 49.128C148.962 49.128 149.442 49.512 149.442 50.28ZM175.779 93.576C176.675 89.096 177.123 82.824 177.123 74.76C177.123 66.632 177.091 61.832 177.027 60.36C176.963 58.888 176.515 57.704 175.683 56.808C174.851 55.912 174.115 55.4 173.475 55.272C172.899 55.144 172.067 55.08 170.979 55.08C169.891 55.08 168.835 55.592 167.811 56.616C166.787 57.576 166.179 58.568 165.987 59.592L165.603 61.128C165.411 63.048 165.315 67.304 165.315 73.896C165.315 80.488 165.443 84.648 165.699 86.376C166.019 88.04 166.179 89.16 166.179 89.736C166.179 90.312 165.923 90.888 165.411 91.464C163.235 93.768 160.163 94.92 156.195 94.92C154.787 94.92 154.083 94.504 154.083 93.672C155.363 85.992 156.003 76.2 156.003 64.296C156.003 59.88 155.907 56.904 155.715 55.368L155.331 52.296C155.267 51.592 155.139 50.824 154.947 49.992C154.947 49.224 155.939 48.84 157.923 48.84C160.867 48.84 162.819 49.928 163.779 52.104C163.843 52.36 163.971 52.488 164.163 52.488C164.355 52.488 164.803 52.232 165.507 51.72C167.619 50.056 170.467 49.224 174.051 49.224C176.099 49.224 178.115 49.608 180.099 50.376C182.083 51.144 183.459 52.168 184.227 53.448C184.291 53.576 184.387 53.64 184.515 53.64C184.643 53.64 184.835 53.512 185.091 53.256C187.779 50.568 191.267 49.224 195.555 49.224C201.251 49.224 205.155 51.272 207.267 55.368C208.035 56.968 208.419 58.984 208.419 61.416C208.419 63.848 208.227 67.304 207.843 71.784C207.459 76.264 207.267 79.688 207.267 82.056C207.267 84.424 207.491 86.568 207.939 88.488C208.451 90.408 208.931 91.784 209.379 92.616C209.891 93.448 210.147 93.928 210.147 94.056C210.147 94.888 209.251 95.304 207.459 95.304C203.043 95.304 199.971 94.408 198.243 92.616C196.515 90.824 195.651 88.488 195.651 85.608C195.651 82.664 196.227 78.728 197.379 73.8C198.595 68.808 199.203 65.064 199.203 62.568C199.203 57.512 197.155 54.984 193.059 54.984C191.331 54.984 189.955 55.496 188.931 56.52C187.907 57.544 187.299 58.568 187.107 59.592L186.915 61.128C186.659 64.072 186.531 67.624 186.531 71.784C186.531 75.944 186.595 79.208 186.723 81.576C186.851 83.88 186.979 85.704 187.107 87.048C187.235 88.328 187.299 89.096 187.299 89.352C187.299 91.144 186.179 92.52 183.939 93.48C181.699 94.44 179.523 94.92 177.411 94.92C176.323 94.92 175.779 94.472 175.779 93.576ZM235.029 93.576C235.925 89.096 236.373 82.824 236.373 74.76C236.373 66.632 236.341 61.832 236.277 60.36C236.213 58.888 235.765 57.704 234.933 56.808C234.101 55.912 233.365 55.4 232.725 55.272C232.149 55.144 231.317 55.08 230.229 55.08C229.141 55.08 228.085 55.592 227.061 56.616C226.037 57.576 225.429 58.568 225.237 59.592L224.853 61.128C224.661 63.048 224.565 67.304 224.565 73.896C224.565 80.488 224.693 84.648 224.949 86.376C225.269 88.04 225.429 89.16 225.429 89.736C225.429 90.312 225.173 90.888 224.661 91.464C222.485 93.768 219.413 94.92 215.445 94.92C214.037 94.92 213.333 94.504 213.333 93.672C214.613 85.992 215.253 76.2 215.253 64.296C215.253 59.88 215.157 56.904 214.965 55.368L214.581 52.296C214.517 51.592 214.389 50.824 214.197 49.992C214.197 49.224 215.189 48.84 217.173 48.84C220.117 48.84 222.069 49.928 223.029 52.104C223.093 52.36 223.221 52.488 223.413 52.488C223.605 52.488 224.053 52.232 224.757 51.72C226.869 50.056 229.717 49.224 233.301 49.224C235.349 49.224 237.365 49.608 239.349 50.376C241.333 51.144 242.709 52.168 243.477 53.448C243.541 53.576 243.637 53.64 243.765 53.64C243.893 53.64 244.085 53.512 244.341 53.256C247.029 50.568 250.517 49.224 254.805 49.224C260.501 49.224 264.405 51.272 266.517 55.368C267.285 56.968 267.669 58.984 267.669 61.416C267.669 63.848 267.477 67.304 267.093 71.784C266.709 76.264 266.517 79.688 266.517 82.056C266.517 84.424 266.741 86.568 267.189 88.488C267.701 90.408 268.181 91.784 268.629 92.616C269.141 93.448 269.397 93.928 269.397 94.056C269.397 94.888 268.501 95.304 266.709 95.304C262.293 95.304 259.221 94.408 257.493 92.616C255.765 90.824 254.901 88.488 254.901 85.608C254.901 82.664 255.477 78.728 256.629 73.8C257.845 68.808 258.453 65.064 258.453 62.568C258.453 57.512 256.405 54.984 252.309 54.984C250.581 54.984 249.205 55.496 248.181 56.52C247.157 57.544 246.549 58.568 246.357 59.592L246.165 61.128C245.909 64.072 245.781 67.624 245.781 71.784C245.781 75.944 245.845 79.208 245.973 81.576C246.101 83.88 246.229 85.704 246.357 87.048C246.485 88.328 246.549 89.096 246.549 89.352C246.549 91.144 245.429 92.52 243.189 93.48C240.949 94.44 238.773 94.92 236.661 94.92C235.573 94.92 235.029 94.472 235.029 93.576ZM289.575 119.592C289.575 120.36 289.191 120.744 288.423 120.744H288.327C286.215 120.744 283.815 120.008 281.127 118.536C278.503 117.064 277.191 115.368 277.191 113.448C277.191 111.528 278.407 108.168 280.839 103.368C283.271 98.632 284.487 95.464 284.487 93.864C284.487 92.136 283.655 89.032 281.991 84.552C279.879 78.728 278.183 73.992 276.903 70.344C275.687 66.696 274.343 63.496 272.871 60.744C271.463 57.928 270.439 56.264 269.799 55.752L268.839 55.08C268.135 54.696 267.783 54.28 267.783 53.832C267.783 52.936 269.159 52.04 271.911 51.144C274.727 50.184 277.191 49.704 279.303 49.704C280.263 49.704 281.063 50.472 281.703 52.008C282.855 55.016 284.103 59.176 285.447 64.488C288.711 75.368 290.759 80.808 291.591 80.808C292.167 80.808 293.319 78.568 295.047 74.088C296.839 69.608 297.735 65.992 297.735 63.24C297.735 58.44 296.327 55.624 293.511 54.792C292.871 54.664 292.551 54.344 292.551 53.832C292.551 52.68 294.055 51.592 297.063 50.568C300.071 49.48 302.791 48.936 305.223 48.936C307.335 48.936 308.391 50.312 308.391 53.064C308.391 55.176 307.943 57.64 307.047 60.456C306.151 63.272 305.319 65.512 304.551 67.176C303.783 68.776 301.863 72.552 298.791 78.504C295.783 84.392 293.287 89.576 291.303 94.056C289.127 99.432 288.039 104.904 288.039 110.472C288.039 113.416 288.295 115.624 288.807 117.096C289.319 118.568 289.575 119.4 289.575 119.592Z" fill="white"/>
</svg>
